<svg xmlns="http://www.w3.org/2000/svg" width="1600" height="1000" viewBox="0 0 1600 1000"><rect width="100%" height="100%" fill="#111"/><path fill="#FFF" d="M356.06 535.82h26.66q7.35 0 12.35-1.76 4.99-1.77 7.98-4.71t4.32-6.86q1.32-3.92 1.32-8.33 0-4.6-1.47-8.28-1.47-3.67-4.61-6.27-3.13-2.6-8.08-3.97t-11.91-1.37h-26.56zm22.44-100.74h-22.44v40.96h20.97q13.53 0 20.44-4.9t6.91-15.58q0-11.08-6.28-15.78-6.27-4.7-19.6-4.7m-48.8-20.39h48.8q13.92 0 23.82 2.65 9.9 2.64 16.22 7.54t9.26 11.86 2.94 15.68q0 5-1.47 9.56-1.47 4.55-4.56 8.52t-7.84 7.21q-4.75 3.23-11.32 5.48 29.21 6.57 29.21 31.56 0 9.02-3.43 16.66t-10 13.18-16.17 8.67q-9.6 3.14-21.95 3.14H329.7zm169.74 39.59q11.17 0 20.33 3.63t15.68 10.29 10.05 16.27q3.52 9.6 3.52 21.46 0 11.96-3.52 21.56-3.53 9.6-10.05 16.37-6.52 6.76-15.68 10.38-9.16 3.63-20.33 3.63-11.27 0-20.49-3.63-9.21-3.62-15.72-10.38-6.52-6.77-10.1-16.37t-3.58-21.56q0-11.86 3.58-21.46 3.58-9.61 10.1-16.27 6.51-6.66 15.72-10.29 9.22-3.63 20.49-3.63m0 84.97q12.54 0 18.57-8.43 6.02-8.43 6.02-24.69 0-16.27-6.02-24.8-6.03-8.52-18.57-8.52-12.74 0-18.87 8.57-6.12 8.58-6.12 24.75t6.12 24.64q6.13 8.48 18.87 8.48m112.6-84.97q11.17 0 20.33 3.63 9.17 3.63 15.68 10.29 6.52 6.66 10.05 16.27 3.53 9.6 3.53 21.46 0 11.96-3.53 21.56t-10.05 16.37q-6.51 6.76-15.68 10.38-9.16 3.63-20.33 3.63-11.27 0-20.48-3.63-9.22-3.62-15.73-10.38-6.52-6.77-10.1-16.37-3.57-9.6-3.57-21.56 0-11.86 3.57-21.46 3.58-9.61 10.1-16.27 6.51-6.66 15.73-10.29 9.21-3.63 20.48-3.63m0 84.97q12.54 0 18.57-8.43t6.03-24.69q0-16.27-6.03-24.8-6.03-8.52-18.57-8.52-12.74 0-18.87 8.57-6.12 8.58-6.12 24.75t6.12 24.64q6.13 8.48 18.87 8.48m68.11-128.48h24.2v83.4h4.51q2.45 0 3.87-.64 1.42-.63 2.89-2.59l24.99-30.87q1.57-2.06 3.48-3.14t4.95-1.08h22.15l-31.26 37.34q-3.33 4.41-7.25 6.76 2.05 1.47 3.67 3.43t3.09 4.22l33.51 48.8H751.1q-2.84 0-4.9-.93t-3.43-3.38l-25.68-38.12q-1.37-2.26-2.84-2.94-1.47-.69-4.41-.69h-5.49v46.06h-24.2zm176.69 45.08h19.41l-54.79 128.19q-1.07 2.54-2.79 3.87-1.71 1.32-5.24 1.32H795.4l18.81-40.38-40.67-93h21.27q2.84 0 4.46 1.37 1.61 1.38 2.4 3.14l21.36 52.14q1.08 2.64 1.82 5.29.73 2.64 1.42 5.39.88-2.75 1.76-5.44.88-2.7 1.96-5.34l20.19-52.04q.78-1.96 2.6-3.23 1.81-1.28 4.06-1.28m94.57 70.76v-45.08q-4.11-5-8.96-7.06-4.86-2.06-10.44-2.06-5.49 0-9.9 2.06t-7.55 6.23q-3.13 4.16-4.8 10.58-1.66 6.42-1.66 15.14 0 8.82 1.42 14.94 1.42 6.13 4.06 10 2.65 3.87 6.47 5.59 3.82 1.71 8.53 1.71 7.54 0 12.84-3.13 5.29-3.14 9.99-8.92m0-115.84h24.21V556.4h-14.8q-4.8 0-6.08-4.41l-2.05-9.7q-6.08 6.96-13.97 11.27t-18.37 4.31q-8.24 0-15.1-3.43t-11.8-9.95q-4.95-6.51-7.65-16.12-2.69-9.6-2.69-21.95 0-11.17 3.03-20.78 3.04-9.6 8.73-16.66 5.68-7.05 13.62-11.02t17.83-3.97q8.43 0 14.41 2.65 5.98 2.64 10.68 7.15zm101.24 119.66v-16.95q-10.49.49-17.64 1.81-7.16 1.32-11.47 3.38t-6.17 4.8q-1.87 2.75-1.87 5.98 0 6.37 3.78 9.11 3.77 2.75 9.85 2.75 7.44 0 12.88-2.7 5.44-2.69 10.64-8.18m-51.16-52.82-4.31-7.74q17.34-15.88 41.75-15.88 8.82 0 15.77 2.89 6.96 2.89 11.76 8.04 4.81 5.14 7.31 12.3 2.49 7.15 2.49 15.68v63.5h-10.97q-3.43 0-5.29-1.03-1.87-1.03-2.94-4.16l-2.16-7.26q-3.82 3.43-7.45 6.03-3.62 2.6-7.54 4.36-3.92 1.77-8.38 2.7t-9.85.93q-6.37 0-11.76-1.72-5.39-1.71-9.31-5.14t-6.08-8.53q-2.15-5.09-2.15-11.86 0-3.82 1.27-7.59t4.17-7.2q2.89-3.43 7.49-6.47 4.61-3.04 11.32-5.29 6.71-2.26 15.63-3.68t20.39-1.71v-5.88q0-10.1-4.32-14.95-4.31-4.85-12.44-4.85-5.88 0-9.75 1.37t-6.81 3.09q-2.94 1.71-5.34 3.09-2.41 1.37-5.35 1.37-2.54 0-4.31-1.32-1.76-1.33-2.84-3.09m169.44-21.76h19.41l-54.79 128.19q-1.07 2.54-2.79 3.87-1.71 1.32-5.24 1.32h-18.03l18.81-40.38-40.67-93h21.27q2.84 0 4.46 1.37 1.61 1.38 2.4 3.14l21.36 52.14q1.08 2.64 1.82 5.29.73 2.64 1.42 5.39.88-2.75 1.76-5.44.88-2.7 1.96-5.34l20.19-52.04q.78-1.96 2.6-3.23 1.81-1.28 4.06-1.28m98.3 10.88-5.49 8.72q-.98 1.57-2.06 2.21-1.08.63-2.74.63-1.77 0-3.78-.98t-4.65-2.2q-2.65-1.23-6.03-2.21t-7.99-.98q-7.15 0-11.22 3.04-4.06 3.04-4.06 7.94 0 3.23 2.1 5.44 2.11 2.2 5.59 3.87t7.89 2.99 8.97 2.89q4.55 1.57 8.96 3.58t7.89 5.09q3.48 3.09 5.59 7.4 2.1 4.31 2.1 10.39 0 7.25-2.59 13.38-2.6 6.12-7.7 10.58-5.09 4.46-12.59 6.96t-17.3 2.5q-5.19 0-10.14-.93t-9.5-2.6q-4.56-1.67-8.43-3.92t-6.81-4.9l5.58-9.21q1.08-1.67 2.55-2.55t3.72-.88q2.26 0 4.27 1.27 2.01 1.28 4.65 2.75 2.65 1.47 6.23 2.74 3.57 1.27 9.06 1.27 4.31 0 7.4-1.02 3.09-1.03 5.1-2.7 2-1.67 2.94-3.87.93-2.21.93-4.56 0-3.53-2.11-5.78t-5.59-3.92-7.93-2.99q-4.46-1.32-9.12-2.89-4.65-1.57-9.11-3.68-4.46-2.1-7.94-5.34-3.48-3.23-5.59-7.93-2.1-4.71-2.1-11.37 0-6.18 2.45-11.76 2.45-5.59 7.2-9.75 4.75-4.17 11.86-6.67 7.1-2.5 16.41-2.5 10.39 0 18.92 3.43 8.52 3.43 14.21 9.02"/></svg>
