<svg xmlns="http://www.w3.org/2000/svg" width="1600" height="1000" viewBox="0 0 1600 1000"><rect width="100%" height="100%" fill="#111"/><path fill="#FFF" d="M396.925 499.485h67.62l-25.87-70.71q-1.91-4.7-3.97-11.17t-4.11-13.97q-1.92 7.5-3.97 14.04-2.06 6.54-3.97 11.4zm53.95-132.3 83.5 212.56h-30.58q-5.14 0-8.38-2.57-3.23-2.57-4.85-6.4l-15.87-43.36h-88.06l-15.87 43.36q-1.18 3.38-4.56 6.18-3.38 2.79-8.38 2.79h-30.87l83.64-212.56zm154.94 133.47q6.76 0 11.76-1.83 5-1.84 8.31-5.07 3.3-3.24 4.99-7.8 1.69-4.55 1.69-9.99 0-11.17-6.68-17.72-6.69-6.54-20.07-6.54t-20.07 6.54q-6.68 6.55-6.68 17.72 0 5.29 1.69 9.85 1.69 4.55 4.99 7.86 3.31 3.31 8.38 5.15 5.07 1.83 11.69 1.83m41.01 85.85q0-4.41-2.64-7.2-2.65-2.79-7.21-4.34-4.55-1.54-10.65-2.28-6.1-.73-12.94-1.1t-14.11-.66q-7.28-.29-14.19-1.18-6.02 3.39-9.77 7.94-3.75 4.56-3.75 10.59 0 3.96 1.98 7.42 1.99 3.45 6.32 5.95 4.34 2.5 11.25 3.9 6.91 1.39 16.9 1.39 10.15 0 17.5-1.54t12.13-4.26q4.77-2.72 6.98-6.47 2.2-3.75 2.2-8.16m-7.2-152.44h43.36v13.53q0 6.47-7.79 7.94l-13.52 2.49q3.09 7.8 3.09 17.06 0 11.17-4.49 20.21-4.48 9.04-12.42 15.36t-18.74 9.78q-10.81 3.45-23.3 3.45-4.41 0-8.53-.44-4.11-.44-8.08-1.18-7.06 4.27-7.06 9.56 0 4.56 4.19 6.69t11.1 3.01 15.73 1.1 18.08.96q9.26.73 18.08 2.57t15.73 5.81 11.1 10.8q4.19 6.84 4.19 17.57 0 9.99-4.93 19.4-4.92 9.41-14.26 16.76-9.33 7.35-22.93 11.83-13.59 4.49-30.94 4.49-17.05 0-29.69-3.31-12.65-3.31-21.03-8.82-8.37-5.51-12.49-12.72-4.12-7.2-4.12-14.99 0-10.58 6.4-17.71 6.39-7.13 17.56-11.4-6.02-3.08-9.55-8.23-3.53-5.14-3.53-13.52 0-3.38 1.25-6.98 1.25-3.61 3.68-7.13 2.42-3.53 6.1-6.69 3.67-3.16 8.67-5.66-11.47-6.18-18.01-16.47t-6.54-24.1q0-11.18 4.48-20.22 4.49-9.04 12.5-15.43 8.01-6.4 18.96-9.78t23.89-3.38q9.7 0 18.23 1.99 8.52 1.98 15.58 5.8m94.96 52.92h68.5q0-7.05-1.98-13.3-1.99-6.25-5.95-10.95-3.97-4.71-10.07-7.43-6.1-2.71-14.19-2.71-15.73 0-24.77 8.96-9.04 8.97-11.54 25.43m92.61 21.91h-93.34q.88 11.61 4.11 20.06 3.24 8.45 8.53 13.97 5.29 5.51 12.57 8.23 7.27 2.72 16.09 2.72t15.22-2.06q6.39-2.06 11.17-4.56t8.38-4.55q3.6-2.06 6.98-2.06 4.56 0 6.76 3.38l10.44 13.23q-6.03 7.06-13.52 11.83-7.5 4.78-15.66 7.65-8.16 2.86-16.61 4.04t-16.39 1.18q-15.73 0-29.25-5.22-13.53-5.22-23.52-15.44-10-10.21-15.73-25.28-5.74-15.07-5.74-34.91 0-15.44 5-29.04 5-13.59 14.33-23.66 9.34-10.07 22.79-15.95t30.36-5.88q14.25 0 26.31 4.55 12.05 4.56 20.73 13.31 8.67 8.74 13.59 21.46 4.93 12.71 4.93 29.03 0 8.23-1.77 11.1-1.76 2.87-6.76 2.87m67.18-73.36 2.5 11.91q4.56-4.56 9.63-8.45 5.07-3.9 10.73-6.62t12.13-4.26q6.46-1.54 14.11-1.54 12.35 0 21.9 4.19 9.56 4.19 15.95 11.76 6.4 7.57 9.7 18.08 3.31 10.51 3.31 23.15v95.99h-36.31v-95.99q0-13.82-6.32-21.39t-19.26-7.57q-9.4 0-17.64 4.26-8.23 4.27-15.58 11.62v109.07h-36.31v-150.82h22.2q7.06 0 9.26 6.61m234.61 9.71-8.23 13.08q-1.47 2.35-3.09 3.31-1.61.95-4.11.95-2.65 0-5.66-1.47-3.02-1.47-6.98-3.31-3.97-1.83-9.05-3.3-5.07-1.47-11.98-1.47-10.73 0-16.83 4.55-6.1 4.56-6.1 11.91 0 4.85 3.16 8.16t8.38 5.81q5.22 2.49 11.84 4.48 6.61 1.98 13.45 4.34 6.83 2.35 13.45 5.36 6.61 3.01 11.83 7.64t8.38 11.1 3.16 15.59q0 10.87-3.9 20.06-3.89 9.19-11.54 15.88-7.64 6.69-18.89 10.43-11.24 3.75-25.94 3.75-7.79 0-15.22-1.39-7.42-1.4-14.25-3.9-6.84-2.5-12.65-5.88-5.8-3.38-10.21-7.35l8.38-13.82q1.61-2.5 3.82-3.82 2.2-1.32 5.58-1.32 3.39 0 6.4 1.91t6.98 4.11q3.97 2.21 9.34 4.12 5.36 1.91 13.59 1.91 6.47 0 11.1-1.54 4.63-1.55 7.65-4.04 3.01-2.5 4.41-5.81 1.39-3.31 1.39-6.84 0-5.29-3.16-8.67t-8.38-5.88-11.9-4.48q-6.69-1.99-13.68-4.34-6.98-2.35-13.67-5.51-6.68-3.16-11.9-8.01t-8.38-11.91-3.16-17.05q0-9.26 3.67-17.64 3.68-8.38 10.81-14.63t17.78-10q10.66-3.74 24.63-3.74 15.58 0 28.37 5.14 12.79 5.15 21.31 13.53m108.64 95.55v-25.44q-15.73.74-26.46 2.72-10.74 1.99-17.2 5.08-6.47 3.08-9.26 7.2-2.8 4.11-2.8 8.97 0 9.55 5.66 13.67 5.66 4.11 14.78 4.11 11.17 0 19.33-4.04 8.15-4.04 15.95-12.27m-76.74-79.24-6.47-11.61q26.02-23.81 62.63-23.81 13.23 0 23.66 4.33 10.44 4.34 17.64 12.06 7.21 7.71 10.95 18.44 3.75 10.74 3.75 23.52v95.26h-16.46q-5.15 0-7.94-1.54-2.79-1.55-4.41-6.25l-3.23-10.88q-5.74 5.15-11.18 9.04-5.43 3.9-11.31 6.54-5.88 2.65-12.57 4.05-6.69 1.39-14.78 1.39-9.55 0-17.64-2.57-8.08-2.57-13.96-7.72-5.88-5.14-9.12-12.79-3.23-7.64-3.23-17.78 0-5.74 1.91-11.4t6.25-10.8q4.34-5.15 11.24-9.7 6.91-4.56 16.98-7.94t23.45-5.51 30.58-2.58v-8.82q0-15.14-6.47-22.41-6.47-7.28-18.67-7.28-8.82 0-14.63 2.06-5.8 2.06-10.21 4.63t-8.02 4.63q-3.6 2.06-8.01 2.06-3.82 0-6.47-1.99-2.64-1.98-4.26-4.63"/></svg>
